<svg viewBox="0 0 141.732 141.732" xml:space="preserve" xmlns="http://www.w3.org/2000/svg"><path d="M101.734 59.837a5.437 5.437 0 0 1-5.439 5.439 5.438 5.438 0 0 1-5.439-5.439c0-3.007 2.435-5.44 5.439-5.44s5.439 2.434 5.439 5.44m0-16.32h-27.2V16.319h27.2v27.198zM85.415 8.158c0 1.545-1.218 2.794-2.718 2.794H60.899a2.757 2.757 0 0 1-2.758-2.758 2.762 2.762 0 0 1 2.758-2.761c.015 0 .024.004.038.004v-.074h21.761c1.499 0 2.717 1.25 2.717 2.795M69.096 43.517h-27.2V16.319h27.202l-.002 27.198zm-28.002 16.32a5.438 5.438 0 0 1 5.439-5.44 5.44 5.44 0 1 1 0 10.879 5.438 5.438 0 0 1-5.439-5.439m12.193 27.198H90.03l6.455 11.177H46.834l6.453-11.177zm-12.734 22.056h62.212l6.28 10.881H34.27l6.283-10.881zm66.624-30.215V8.158A8.159 8.159 0 0 0 99.015 0H44.617a8.156 8.156 0 0 0-8.16 8.157v70.718a8.157 8.157 0 0 0 8.16 8.158h2.471L15.51 141.732h6.199l6.281-10.883h87.337l6.281 10.883h6.199L96.228 87.035h2.789a8.16 8.16 0 0 0 8.16-8.159m1.188 19.335.257.443v-.443h-.257z" fill="#969696" class="fill-000000"></path></svg>